<?xml version="1.0" standalone="no"?>
<!DOCTYPE svg PUBLIC "-//W3C//DTD SVG 20010904//EN"
 "http://www.w3.org/TR/2001/REC-SVG-20010904/DTD/svg10.dtd">
<svg version="1.0" xmlns="http://www.w3.org/2000/svg"
 width="300.000000pt" height="300.000000pt" viewBox="0 0 300.000000 300.000000"
 preserveAspectRatio="xMidYMid meet">
<metadata>
Created by potrace 1.11, written by Peter Selinger 2001-2013
</metadata>
<g transform="translate(0.000000,300.000000) scale(0.100000,-0.100000)"
fill="#000000" stroke="none">
<path d="M1300 2985 c-108 -15 -298 -71 -412 -120 -290 -125 -553 -371 -711
-665 -42 -78 -128 -313 -141 -385 -3 -16 -11 -57 -18 -90 -18 -92 -15 -363 5
-473 23 -123 95 -337 147 -437 188 -359 499 -620 882 -739 134 -42 159 -47
318 -67 103 -12 288 -5 395 16 74 15 249 69 329 102 63 26 227 116 248 136 7
7 33 25 58 42 75 50 271 254 334 348 116 174 206 396 242 597 66 372 -28 793
-248 1107 -237 338 -570 543 -1023 628 -65 13 -314 12 -405 0z"/>
</g>
</svg>
